<mxfile host="www.draw.io" modified="2020-03-07T18:03:41.666Z" agent="Mozilla/5.0 (Windows NT 10.0; Win64; x64) AppleWebKit/537.36 (KHTML, like Gecko) Chrome/80.0.3987.132 Safari/537.36" etag="VR4LR1-aTCNRlUvujdtV" version="12.8.1" type="github">
  <diagram id="h9D0VYo-MGXwZQbHFUxJ" name="Page-1">
    <mxGraphModel dx="813" dy="447" grid="1" gridSize="10" guides="1" tooltips="1" connect="1" arrows="1" fold="1" page="1" pageScale="1" pageWidth="827" pageHeight="1169" math="0" shadow="0">
      <root>
        <mxCell id="0" />
        <mxCell id="1" parent="0" />
        <mxCell id="O_HJnutYDuN-OBbGDvar-2" value="PLC" style="rounded=0;whiteSpace=wrap;html=1;" vertex="1" parent="1">
          <mxGeometry x="350" y="240" width="120" height="220" as="geometry" />
        </mxCell>
        <mxCell id="O_HJnutYDuN-OBbGDvar-3" value="I0.0&lt;br&gt;&lt;br&gt;&lt;br&gt;&lt;br&gt;&lt;br&gt;&lt;br&gt;&lt;br&gt;&lt;br&gt;&lt;br&gt;I0.1" style="rounded=0;whiteSpace=wrap;html=1;" vertex="1" parent="1">
          <mxGeometry x="300" y="240" width="50" height="220" as="geometry" />
        </mxCell>
        <mxCell id="O_HJnutYDuN-OBbGDvar-4" value="Q4.0&lt;br&gt;&lt;br&gt;&lt;br&gt;&lt;br&gt;&lt;br&gt;&lt;br&gt;&lt;br&gt;&lt;br&gt;&lt;br&gt;Q4.1" style="rounded=0;whiteSpace=wrap;html=1;" vertex="1" parent="1">
          <mxGeometry x="470" y="240" width="50" height="220" as="geometry" />
        </mxCell>
        <mxCell id="O_HJnutYDuN-OBbGDvar-10" style="edgeStyle=orthogonalEdgeStyle;rounded=0;orthogonalLoop=1;jettySize=auto;html=1;exitX=1;exitY=0.84;exitDx=0;exitDy=0;exitPerimeter=0;entryX=0;entryY=0.208;entryDx=0;entryDy=0;entryPerimeter=0;" edge="1" parent="1" source="O_HJnutYDuN-OBbGDvar-6" target="O_HJnutYDuN-OBbGDvar-3">
          <mxGeometry relative="1" as="geometry" />
        </mxCell>
        <mxCell id="O_HJnutYDuN-OBbGDvar-6" value="" style="pointerEvents=1;verticalLabelPosition=bottom;shadow=0;dashed=0;align=center;html=1;verticalAlign=top;shape=mxgraph.electrical.electro-mechanical.push_switch_no;" vertex="1" parent="1">
          <mxGeometry x="200" y="270" width="75" height="19" as="geometry" />
        </mxCell>
        <mxCell id="O_HJnutYDuN-OBbGDvar-9" style="edgeStyle=orthogonalEdgeStyle;rounded=0;orthogonalLoop=1;jettySize=auto;html=1;exitX=1;exitY=0.84;exitDx=0;exitDy=0;exitPerimeter=0;entryX=-0.036;entryY=0.799;entryDx=0;entryDy=0;entryPerimeter=0;" edge="1" parent="1" source="O_HJnutYDuN-OBbGDvar-8" target="O_HJnutYDuN-OBbGDvar-3">
          <mxGeometry relative="1" as="geometry" />
        </mxCell>
        <mxCell id="O_HJnutYDuN-OBbGDvar-8" value="" style="pointerEvents=1;verticalLabelPosition=bottom;shadow=0;dashed=0;align=center;html=1;verticalAlign=top;shape=mxgraph.electrical.electro-mechanical.push_switch_no;" vertex="1" parent="1">
          <mxGeometry x="200" y="400" width="75" height="19" as="geometry" />
        </mxCell>
        <mxCell id="O_HJnutYDuN-OBbGDvar-12" value="" style="endArrow=none;html=1;exitX=0;exitY=0.84;exitDx=0;exitDy=0;exitPerimeter=0;" edge="1" parent="1" source="O_HJnutYDuN-OBbGDvar-8">
          <mxGeometry width="50" height="50" relative="1" as="geometry">
            <mxPoint x="200" y="410" as="sourcePoint" />
            <mxPoint x="200" y="203.04" as="targetPoint" />
          </mxGeometry>
        </mxCell>
        <mxCell id="O_HJnutYDuN-OBbGDvar-13" value="5V" style="text;html=1;align=center;verticalAlign=middle;resizable=0;points=[];labelBackgroundColor=#ffffff;" vertex="1" connectable="0" parent="O_HJnutYDuN-OBbGDvar-12">
          <mxGeometry x="0.9596" y="1" relative="1" as="geometry">
            <mxPoint as="offset" />
          </mxGeometry>
        </mxCell>
        <mxCell id="O_HJnutYDuN-OBbGDvar-14" value="" style="verticalLabelPosition=bottom;shadow=0;dashed=0;align=center;html=1;verticalAlign=top;shape=mxgraph.electrical.opto_electronics.led_2;pointerEvents=1;" vertex="1" parent="1">
          <mxGeometry x="550" y="280" width="40" height="20" as="geometry" />
        </mxCell>
        <mxCell id="O_HJnutYDuN-OBbGDvar-17" value="" style="endArrow=none;html=1;exitX=1.004;exitY=0.234;exitDx=0;exitDy=0;entryX=0;entryY=0.57;entryDx=0;entryDy=0;entryPerimeter=0;exitPerimeter=0;" edge="1" parent="1" source="O_HJnutYDuN-OBbGDvar-4" target="O_HJnutYDuN-OBbGDvar-14">
          <mxGeometry width="50" height="50" relative="1" as="geometry">
            <mxPoint x="430" y="330" as="sourcePoint" />
            <mxPoint x="480" y="280" as="targetPoint" />
          </mxGeometry>
        </mxCell>
        <mxCell id="O_HJnutYDuN-OBbGDvar-18" value="" style="verticalLabelPosition=bottom;shadow=0;dashed=0;align=center;html=1;verticalAlign=top;shape=mxgraph.electrical.opto_electronics.led_2;pointerEvents=1;" vertex="1" parent="1">
          <mxGeometry x="549.8" y="400" width="40" height="20" as="geometry" />
        </mxCell>
        <mxCell id="O_HJnutYDuN-OBbGDvar-19" value="" style="endArrow=none;html=1;exitX=1.004;exitY=0.234;exitDx=0;exitDy=0;entryX=0;entryY=0.57;entryDx=0;entryDy=0;entryPerimeter=0;exitPerimeter=0;" edge="1" parent="1" target="O_HJnutYDuN-OBbGDvar-18">
          <mxGeometry width="50" height="50" relative="1" as="geometry">
            <mxPoint x="520" y="411.48" as="sourcePoint" />
            <mxPoint x="479.8" y="400" as="targetPoint" />
          </mxGeometry>
        </mxCell>
        <mxCell id="O_HJnutYDuN-OBbGDvar-20" value="" style="endArrow=none;html=1;exitX=1;exitY=0.57;exitDx=0;exitDy=0;exitPerimeter=0;" edge="1" parent="1" source="O_HJnutYDuN-OBbGDvar-18">
          <mxGeometry width="50" height="50" relative="1" as="geometry">
            <mxPoint x="380" y="450" as="sourcePoint" />
            <mxPoint x="590" y="220" as="targetPoint" />
          </mxGeometry>
        </mxCell>
        <mxCell id="O_HJnutYDuN-OBbGDvar-21" value="GND&lt;br&gt;" style="text;html=1;align=center;verticalAlign=middle;resizable=0;points=[];autosize=1;" vertex="1" parent="1">
          <mxGeometry x="570" y="200" width="40" height="20" as="geometry" />
        </mxCell>
      </root>
    </mxGraphModel>
  </diagram>
</mxfile>
